<svg xmlns="http://www.w3.org/2000/svg" viewBox="0 0 482 882"><defs><style>.cls-1,.cls-6,.cls-7{fill:#fff;}.cls-2{fill:#7a9296;}.cls-2,.cls-4{opacity:0.88;}.cls-3{fill:#3a465e;}.cls-4{fill:#98b1b7;}.cls-5{fill:#1f2f49;}.cls-6{opacity:0.22;}.cls-7{opacity:0.77;}</style></defs><title>Asset 2</title><g id="Layer_2" data-name="Layer 2"><g id="_ÎÓÈ_1" data-name="—ÎÓÈ_1"><g id="aeropress"><path class="cls-1" d="M433,746H403V340a29.9,29.9,0,0,0-9-21.42V101.18A51,51,0,0,0,384.9,0H98A51,51,0,0,0,87,100.79V318.58A29.9,29.9,0,0,0,78,340V746H49a49,49,0,0,0,0,98H78v8a30,30,0,0,0,30,30H373a30,30,0,0,0,30-30v-8h30a49,49,0,0,0,0-98Z"/><path class="cls-2" d="M364,353.14V72H117V353.14a61.84,61.84,0,0,0,28.77,52.28A61.84,61.84,0,0,0,117,457.7V465H364v-7.3a61.84,61.84,0,0,0-28.77-52.28A61.84,61.84,0,0,0,364,353.14Z"/><path class="cls-3" d="M384.9,30H98a21,21,0,1,0,0,42H384.9a21,21,0,1,0,0-42Z"/><path class="cls-1" d="M241.46,150.08a28.44,28.44,0,1,1,28.44-28.44A28.47,28.47,0,0,1,241.46,150.08Zm0-51.11a22.67,22.67,0,1,0,22.66,22.67A22.69,22.69,0,0,0,241.46,99Z"/><path class="cls-1" d="M241.46,226.74A28.44,28.44,0,1,1,269.9,198.3,28.47,28.47,0,0,1,241.46,226.74Zm0-51.11a22.66,22.66,0,1,0,22.66,22.67A22.69,22.69,0,0,0,241.46,175.64Z"/><path class="cls-1" d="M241.46,303.4A28.44,28.44,0,1,1,269.9,275,28.47,28.47,0,0,1,241.46,303.4Zm0-51.11A22.66,22.66,0,1,0,264.13,275,22.69,22.69,0,0,0,241.46,252.3Z"/><path class="cls-1" d="M241.46,380.06a28.44,28.44,0,1,1,28.44-28.44A28.47,28.47,0,0,1,241.46,380.06Zm0-51.11a22.66,22.66,0,1,0,22.66,22.66A22.69,22.69,0,0,0,241.46,329Z"/><path class="cls-1" d="M244,364.12h-4.77v-18a16.45,16.45,0,0,1-6.16,3.62v-4.33a13.8,13.8,0,0,0,4.06-2.32,8.81,8.81,0,0,0,3-4H244Z"/><path class="cls-1" d="M249.82,283v4.43H233.1a11.51,11.51,0,0,1,1.63-4.76,31.69,31.69,0,0,1,5.36-6,33.78,33.78,0,0,0,4-4.07,5.23,5.23,0,0,0,1-2.92,3.31,3.31,0,0,0-.86-2.45,3.63,3.63,0,0,0-4.74,0,4.62,4.62,0,0,0-1,3l-4.75-.48q.42-3.94,2.66-5.65a8.94,8.94,0,0,1,5.6-1.71,8.09,8.09,0,0,1,5.79,2,6.51,6.51,0,0,1,2.11,4.94,8.58,8.58,0,0,1-.6,3.2,13,13,0,0,1-1.91,3.18,30.18,30.18,0,0,1-3.12,3.18q-2.26,2.07-2.86,2.75a8.24,8.24,0,0,0-1,1.32Z"/><path class="cls-1" d="M233.2,204l4.62-.56a4.35,4.35,0,0,0,1.19,2.7,3.36,3.36,0,0,0,4.83-.19,4.34,4.34,0,0,0,1-3,4.05,4.05,0,0,0-1-2.85,3.09,3.09,0,0,0-2.36-1.05,8.29,8.29,0,0,0-2.19.36l.53-3.89a4.17,4.17,0,0,0,3-.84,3,3,0,0,0,1-2.37,2.57,2.57,0,0,0-2.73-2.75,2.88,2.88,0,0,0-2.09.85,4,4,0,0,0-1.05,2.48l-4.4-.75a9.8,9.8,0,0,1,1.38-3.61,6.24,6.24,0,0,1,2.58-2.12,8.68,8.68,0,0,1,3.71-.77,7.4,7.4,0,0,1,5.64,2.24,5.86,5.86,0,0,1,1.75,4.14q0,3.28-3.58,5.23a5.79,5.79,0,0,1,3.42,2.06,5.94,5.94,0,0,1,1.28,3.85,7.47,7.47,0,0,1-2.39,5.58,8.93,8.93,0,0,1-11.56.37A7.63,7.63,0,0,1,233.2,204Z"/><path class="cls-1" d="M242,134.13v-5H231.84v-4.18l10.8-15.8h4v15.79h3.09v4.19h-3.09v5Zm0-9.2v-8.5l-5.72,8.5Z"/><rect class="cls-4" x="108" y="340" width="265" height="436"/><path class="cls-3" d="M452,795a19,19,0,0,1-19,19H49a19,19,0,0,1-19-19h0a19,19,0,0,1,19-19H433a19,19,0,0,1,19,19Z"/><rect class="cls-5" x="108" y="814" width="265" height="38"/><path class="cls-1" d="M241.46,529.37a28.44,28.44,0,1,1,28.44-28.44A28.47,28.47,0,0,1,241.46,529.37Zm0-51.11a22.67,22.67,0,1,0,22.66,22.67A22.69,22.69,0,0,0,241.46,478.26Z"/><path class="cls-1" d="M241.46,606a28.44,28.44,0,1,1,28.44-28.44A28.47,28.47,0,0,1,241.46,606Zm0-51.1a22.66,22.66,0,1,0,22.66,22.66A22.69,22.69,0,0,0,241.46,554.93Z"/><path class="cls-1" d="M241.46,682.69a28.44,28.44,0,1,1,28.44-28.44A28.47,28.47,0,0,1,241.46,682.69Zm0-51.11a22.67,22.67,0,1,0,22.66,22.67A22.69,22.69,0,0,0,241.46,631.59Z"/><path class="cls-1" d="M241.46,759.35a28.44,28.44,0,1,1,28.44-28.44A28.47,28.47,0,0,1,241.46,759.35Zm0-51.11a22.67,22.67,0,1,0,22.66,22.66A22.69,22.69,0,0,0,241.46,708.25Z"/><path class="cls-1" d="M244,743.41h-4.77v-18A16.47,16.47,0,0,1,233.1,729v-4.33a13.82,13.82,0,0,0,4.06-2.32,8.81,8.81,0,0,0,3-4H244Z"/><path class="cls-1" d="M249.82,662.32v4.43H233.1a11.52,11.52,0,0,1,1.63-4.76,31.71,31.71,0,0,1,5.36-6,33.68,33.68,0,0,0,4-4.07,5.24,5.24,0,0,0,1-2.92,3.31,3.31,0,0,0-.86-2.45,3.63,3.63,0,0,0-4.74,0,4.62,4.62,0,0,0-1,3l-4.75-.48q.42-3.94,2.66-5.65a8.94,8.94,0,0,1,5.6-1.71,8.08,8.08,0,0,1,5.79,2,6.51,6.51,0,0,1,2.11,4.94,8.58,8.58,0,0,1-.6,3.2,13,13,0,0,1-1.91,3.18,29.9,29.9,0,0,1-3.12,3.18q-2.26,2.07-2.86,2.75a8.21,8.21,0,0,0-1,1.32Z"/><path class="cls-1" d="M233.2,583.27l4.62-.56a4.35,4.35,0,0,0,1.19,2.7,3.35,3.35,0,0,0,4.83-.19,4.34,4.34,0,0,0,1-3,4.05,4.05,0,0,0-1-2.85,3.09,3.09,0,0,0-2.36-1,8.3,8.3,0,0,0-2.19.36l.53-3.89a4.17,4.17,0,0,0,3-.84,3,3,0,0,0,1-2.37,2.57,2.57,0,0,0-2.73-2.75,2.88,2.88,0,0,0-2.09.85,4,4,0,0,0-1.05,2.48l-4.4-.75a9.81,9.81,0,0,1,1.38-3.61,6.25,6.25,0,0,1,2.58-2.12,8.68,8.68,0,0,1,3.71-.77,7.4,7.4,0,0,1,5.64,2.24,5.86,5.86,0,0,1,1.75,4.15q0,3.27-3.58,5.22a5.8,5.8,0,0,1,3.42,2.06,6,6,0,0,1,1.28,3.85,7.47,7.47,0,0,1-2.39,5.58,8.93,8.93,0,0,1-11.56.36A7.63,7.63,0,0,1,233.2,583.27Z"/><path class="cls-1" d="M242,513.42v-5H231.84v-4.18l10.8-15.8h4v15.79h3.09v4.19h-3.09v5Zm0-9.2v-8.5l-5.72,8.5Z"/><path class="cls-6" d="M187,730.5A28.5,28.5,0,0,1,158.5,759h0A28.5,28.5,0,0,1,130,730.5v-609A28.5,28.5,0,0,1,158.5,93h0A28.5,28.5,0,0,1,187,121.5Z"/><path class="cls-7" d="M145,661a6,6,0,0,1-6,6h0a6,6,0,0,1-6-6V128a6,6,0,0,1,6-6h0a6,6,0,0,1,6,6Z"/></g></g></g></svg>