<svg xmlns="http://www.w3.org/2000/svg" viewBox="0 0 80.66 101.52"><title>cafetiera</title><g id="Layer_2" data-name="Layer 2"><g id="Layer_1-2" data-name="Layer 1"><path d="M73.38,22.21,59.84,19.7l-1.71,11L72.4,28.52a2.28,2.28,0,0,1,1.81,2.33L74.28,50a3.19,3.19,0,0,0,6.38,0l-.07-19.11a8.62,8.62,0,0,0-7.21-8.61" fill="#6d6e70"/><polygon points="41.54 8.97 32.91 8.97 30.88 0 43.57 0 41.54 8.97" fill="#6d6e70"/><polygon points="11.79 31.24 0 16.92 11.79 16.92 11.79 31.24" fill="#bbbdbf"/><polygon points="71.07 101.52 3.38 101.52 11.44 78.68 63.02 78.68 71.07 101.52" fill="#6d6e70"/><rect x="21.32" y="60.46" width="31.81" height="11.45" fill="#bbbdbf"/><polygon points="16.58 78.68 57.87 78.68 55.99 67.23 18.46 67.23 16.58 78.68" fill="#e6e7e8"/><path d="M40.61,86.72a3.39,3.39,0,1,1-3.38-3.39,3.38,3.38,0,0,1,3.38,3.39" fill="#c48730"/><polygon points="66.84 16.97 7.61 16.97 32.91 9.02 41.54 9.02 66.84 16.97" fill="#e6e7e8"/><polygon points="55.99 63.11 18.46 63.11 7.61 16.92 66.84 16.92 55.99 63.11" fill="#e6e7e8"/><polygon points="46.27 63.11 28.18 63.11 22.96 16.92 51.49 16.92 46.27 63.11" fill="#f1f1f2"/></g></g></svg>