<svg xmlns="http://www.w3.org/2000/svg" viewBox="0 0 99.42 53.17"><title>capuccino cup</title><g id="Layer_2" data-name="Layer 2"><g id="Layer_1-2" data-name="Layer 1"><path d="M16.84,12.94c0,13.21,3.36,24.73,8.34,30.86H49.71V12.94Z" fill="#e6e7e8"/><path d="M82.58,12.94H49.71V43.8H74.24c5-6.13,8.34-17.65,8.34-30.86" fill="#e6e7e8"/><path d="M33.48,6.47c-4.7.44-7.9,1-9.21,1.57-2.3,1-4.84,2.71-4.84,4.9H49.71V0C41.66,0,35,4.78,33.48,6.47" fill="#f1f1f2"/><path d="M75.15,8C73.84,7.5,70.64,6.91,66,6.47,64.09,3.2,54.14,4,49.71,0h0V12.94H80C80,10.75,77.45,9,75.15,8" fill="#f1f1f2"/><path d="M27.19,40.88a1.06,1.06,0,0,1-.88-.48C22.74,35,20.39,26.5,19.87,17A1.06,1.06,0,0,1,22,16.86c.5,9.16,2.72,17.32,6.08,22.37a1.06,1.06,0,0,1-.88,1.65" fill="#fff"/><path d="M88.26,14.52a8.44,8.44,0,0,0-5.8,2.42,68.78,68.78,0,0,1-1.3,10.37l.07,0h0a2.11,2.11,0,0,0,2.06-2.11c0-3.57,2.22-6.47,5-6.47s5,2.9,5,6.47c0,8.31-10.88,12.24-15.87,13.61a26.16,26.16,0,0,1-3.11,5c.06.05,23.22-4.43,23.22-18.57,0-5.9-4.13-10.7-9.2-10.7" fill="#bbbdbf"/><path d="M51.84,9.18A1.12,1.12,0,1,1,53,8.06a1.12,1.12,0,0,1-1.11,1.12" fill="#c48730"/><path d="M57.48,7.77a1.12,1.12,0,1,1,1.11-1.12,1.12,1.12,0,0,1-1.11,1.12" fill="#c48730"/><path d="M47.73,5.45a1.12,1.12,0,1,1,1.11-1.12,1.12,1.12,0,0,1-1.11,1.12" fill="#c48730"/><path d="M41.79,6.59a1.12,1.12,0,1,1,1.12-1.11,1.11,1.11,0,0,1-1.12,1.11" fill="#c48730"/><path d="M49.71,43.8v9.37H73c15.73-1.78,26.45-5.31,26.45-9.37Z" fill="#6d6e70"/><path d="M0,43.8c0,4.06,10.72,7.59,26.45,9.37H49.71V43.8Z" fill="#6d6e70"/></g></g></svg>