<svg xmlns="http://www.w3.org/2000/svg" viewBox="0 0 68.52 97.43"><title>chemex</title><g id="Layer_2" data-name="Layer 2"><g id="Layer_1-2" data-name="Layer 1"><path d="M4.17,5.73a5.22,5.22,0,0,0-.12,1,9.43,9.43,0,0,1,8.55,5.44L24.73,38h30L72.57,0h-61A7.48,7.48,0,0,0,4.17,5.73" transform="translate(-4.05)" fill="#f1f1f2"/><polygon points="8.75 4.75 24.35 38.02 47.02 38.02 62.62 4.75 8.75 4.75" fill="#e0d2bd"/><path d="M54.38,42.22H25.15L8,84a9.74,9.74,0,0,0,9,13.45h45.6a9.74,9.74,0,0,0,9-13.45Z" transform="translate(-4.05)" fill="#f1f1f2"/><polygon points="53.26 42.22 18.18 42.22 9.35 61.71 62.08 61.71 53.26 42.22" fill="#bca076"/><polygon points="53.26 42.22 61.2 22.73 10.23 22.73 18.18 42.22 53.26 42.22" fill="#bca076"/><path d="M59.32,43.84H20.22a1.56,1.56,0,0,1-1.56-1.56v-.12a1.56,1.56,0,0,1,1.56-1.56h39.1a1.56,1.56,0,0,1,1.56,1.56v.12a1.56,1.56,0,0,1-1.56,1.56" transform="translate(-4.05)" fill="#debb89"/><path d="M44.64,42.22a4.87,4.87,0,1,1-4.87-4.87,4.87,4.87,0,0,1,4.87,4.87" transform="translate(-4.05)" fill="#debb89"/><path d="M68,91.3a6.4,6.4,0,0,0,.61-6.08L61,66.9H18.5L11,85.22a6.49,6.49,0,0,0,6,9h45.6A6.42,6.42,0,0,0,68,91.3" transform="translate(-4.05)" fill="#89601b"/><path d="M50.4,70.15a1.63,1.63,0,0,1-1.63-1.62c0-9.35-6.36-17.43-9-20.37-2.64,3-9,11.05-9,20.37a1.62,1.62,0,0,1-3.24,0c0-13.1,10.67-23.47,11.13-23.91a1.62,1.62,0,0,1,2.24,0C41.35,45.06,52,55.43,52,68.53a1.62,1.62,0,0,1-1.62,1.62" transform="translate(-4.05)" fill="#debb89"/></g></g></svg>