<svg xmlns="http://www.w3.org/2000/svg" viewBox="0 0 110.99 114.23"><title>clever</title><g id="Layer_2" data-name="Layer 2"><g id="Layer_1-2" data-name="Layer 1"><path d="M65.67,55.72h-42a35.67,35.67,0,0,0-6.11,53.07,16.56,16.56,0,0,0,12.34,5.44h29.5a16.56,16.56,0,0,0,12.35-5.44,35.69,35.69,0,0,0-6.11-53.07" fill="#f1f1f2"/><path d="M111,75.7c-1.44-29.64-11-49.86-23.95-49.92-8.89,0-16.21,9.64-20.38,25.29H76.82c1.84-13,4.86-19.69,10.22-19.72s8.37,6.74,10.21,19.72h0c.93,6.6,1.57,14.82,2,24.63Z" fill="#6d6e70"/><rect x="67.53" y="44.44" width="11.42" height="11.42" fill="#d0d2d3"/><path d="M.14,6.72A5.47,5.47,0,0,0,0,7.88a11.06,11.06,0,0,1,10,6.37L24.24,44.58h39L84.14,0H8.75A8.77,8.77,0,0,0,.14,6.72" fill="#f1f1f2"/><polygon points="10.27 5.57 28.55 44.58 58.94 44.58 77.22 5.57 10.27 5.57" fill="#e0d2bd"/><rect x="21.84" y="44.44" width="45.69" height="11.42" fill="#e6e7e8"/><path d="M68.94,106.25A31.84,31.84,0,0,0,77.1,85a31,31,0,0,0-.71-6.54H13a31.61,31.61,0,0,0,7.46,27.81,12.73,12.73,0,0,0,9.5,4.17h29.5a12.76,12.76,0,0,0,9.51-4.17" fill="#89601b"/></g></g></svg>