<svg xmlns="http://www.w3.org/2000/svg" viewBox="0 0 77.52 125.95"><title>coffee-bag</title><g id="Layer_2" data-name="Layer 2"><g id="Layer_1-2" data-name="Layer 1"><rect x="8.16" width="61.2" height="8.4" fill="#d4a564"/><path d="M8.16,8.4,6.09,16.91A215.45,215.45,0,0,0,0,67.82V126H61.2V67.82a216,216,0,0,1,6.09-50.91L69.36,8.4Z" fill="#c48730"/><path d="M69.36,8.4l-2.07,8.51A216,216,0,0,0,61.2,67.82V126l16.32-8.4V60.14A167.74,167.74,0,0,0,69.36,8.4" fill="#89601b"/><path d="M44.31,90.71c0,11.59-6.14,21-13.71,21s-13.71-9.4-13.71-21,6.14-21,13.71-21,13.71,9.39,13.71,21" fill="#89601b"/><path d="M30.73,69.72c-.45,0,.45,0,0,.09,7.56,1,12.68,10,12.68,20.9s-5.12,19.93-12.68,20.9c.45.06-.45.09,0,.09,8.19,0,14.83-9.4,14.83-21s-6.64-21-14.83-21" fill="#231f20"/><path d="M30.47,111.7c.45,0-.45,0,0-.09-7.56-1-12.68-10-12.68-20.9s5.12-19.94,12.68-20.9c-.45-.06.45-.1,0-.1-8.19,0-14.83,9.4-14.83,21s6.64,21,14.83,21" fill="#89601b"/><path d="M31.83,97.43h0c3.79-3,3.79-10.46,0-13.44h0c-3-2.59-5.8-6.45-5.39-10.08a8.63,8.63,0,0,0,1.29,10.68h0a8.56,8.56,0,0,1,0,12.22h0a8.63,8.63,0,0,0-1.29,10.68c-.4-3.63,2.4-7.49,5.39-10.07" fill="#231f20"/></g></g></svg>