<svg xmlns="http://www.w3.org/2000/svg" viewBox="0 0 82.82 100.59"><title>french press</title><g id="Layer_2" data-name="Layer 2"><g id="Layer_1-2" data-name="Layer 1"><path d="M68.73,38.56H47.58V99.31l5.66-4.1,24-17.44a13.26,13.26,0,0,0,5.55-10.66V52c0-7.4-6.32-13.41-14.09-13.41m0,3.35A10.32,10.32,0,0,1,79.3,52V67.11a9.91,9.91,0,0,1-4.16,8l-24,17.43V41.91Z" fill="#6d6e70"/><path d="M8.46,23.47h0A8.26,8.26,0,0,0,0,31.52H4.93a3.44,3.44,0,0,1,3.53,3.35v65.72H57.8V23.47Z" fill="#f1f1f2"/><rect x="11.98" y="63.71" width="42.29" height="33.53" fill="#89601b"/><rect x="11.98" y="60.35" width="42.29" height="3.35" fill="#bbbdbf"/><rect x="31.37" y="2.02" width="3.52" height="60.35" fill="#bbbdbf"/><rect x="31.37" y="8.73" width="3.52" height="6.71" fill="#6d6e70"/><rect x="6.7" y="83.82" width="52.87" height="10.06" fill="#6d6e70"/><rect x="6.7" y="35.21" width="52.87" height="10.06" fill="#6d6e70"/><rect x="6.7" y="20.12" width="52.87" height="3.35" fill="#6d6e70"/><path d="M45.82,12.07H20.44c-6.62,0-12,5.1-12,11.4H57.8c0-6.3-5.36-11.4-12-11.4" fill="#6d6e70"/><path d="M38.42,5A5.3,5.3,0,0,1,27.84,5,5.3,5.3,0,0,1,38.42,5" fill="#6d6e70"/></g></g></svg>