<svg xmlns="http://www.w3.org/2000/svg" viewBox="0 0 99.42 46.23"><title>latte cup</title><g id="Layer_2" data-name="Layer 2"><g id="Layer_1-2" data-name="Layer 1"><path d="M82.58,6c0,13.22-3.36,24.74-8.34,30.86H49.71V6Z" fill="#e6e7e8"/><path d="M16.85,6H49.71V36.85H25.18c-5-6.12-8.33-17.64-8.33-30.86" fill="#e6e7e8"/><path d="M66,3.17a89.74,89.74,0,0,1,9.2.69C77.45,4.28,80,5,80,6H49.71V.35C57.77.35,64.47,2.44,66,3.17" fill="#f1f1f2"/><path d="M24.27,3.86a89.74,89.74,0,0,1,9.2-.69C35.33,1.75,45.28,2.09,49.71.35h0V6H19.43c0-1,2.54-1.71,4.84-2.13" fill="#f1f1f2"/><path d="M72.23,33.93a1,1,0,0,0,.88-.47C76.68,28.1,79,19.56,79.55,10a1.06,1.06,0,0,0-1-1.11,1,1,0,0,0-1.11,1c-.51,9.16-2.72,17.31-6.09,22.37a1.06,1.06,0,0,0,.29,1.46,1,1,0,0,0,.59.18" fill="#fff"/><path d="M11.16,7.57A8.44,8.44,0,0,1,17,10a68.94,68.94,0,0,0,1.3,10.37h-.08a2.09,2.09,0,0,1-2.05-2.1c0-3.57-2.23-6.48-5-6.48s-5,2.91-5,6.48c0,8.3,10.88,12.24,15.87,13.61a26.49,26.49,0,0,0,3.11,5C25.12,36.9,2,32.41,2,18.28,2,12.37,6.09,7.57,11.16,7.57" fill="#bbbdbf"/><path d="M47.58,2.23a1.12,1.12,0,1,0-1.11-1.11,1.12,1.12,0,0,0,1.11,1.11" fill="#c48730"/><path d="M42,3.58a1.12,1.12,0,1,0-1.12-1.11A1.11,1.11,0,0,0,42,3.58" fill="#c48730"/><path d="M51.7,4.29a1.12,1.12,0,1,0-1.12-1.12A1.12,1.12,0,0,0,51.7,4.29" fill="#c48730"/><path d="M57.63,2.47a1.12,1.12,0,1,0-1.12-1.12,1.12,1.12,0,0,0,1.12,1.12" fill="#c48730"/><path d="M49.71,36.85v9.38H26.45C10.72,44.45,0,40.92,0,36.85Z" fill="#6d6e70"/><path d="M99.42,36.85c0,4.07-10.72,7.6-26.45,9.38H49.71V36.85Z" fill="#6d6e70"/></g></g></svg>