<svg xmlns="http://www.w3.org/2000/svg" xmlns:xlink="http://www.w3.org/1999/xlink" viewBox="0 0 78.52 185.42"><defs><clipPath id="clip-path"><rect x="7.5" y="129.64" width="77.61" height="29.31" fill="none"/></clipPath></defs><title>siphon</title><g id="Layer_2" data-name="Layer 2"><g id="Layer_1-2" data-name="Layer 1"><path d="M46.35,160.09s7.11,8.3,0,11c-7.12-2.69,0-11,0-11" fill="#f6921e"/><path d="M46.35,163.59s4.81,5.61,0,7.44c-4.81-1.83,0-7.44,0-7.44" fill="#fd0"/><rect x="32.55" y="70.3" width="26.95" height="11.86" fill="#6d6e70"/><rect x="36.86" y="82.16" width="18.54" height="4.96" fill="#929497"/><rect x="36" y="87.12" width="20.26" height="2.59" fill="#6d6e70"/><path d="M15.88,133.76c0-.38,0-.77,0-1.15h0s-.14-21.36,21.38-34.29h0V89.71h17.9V98.3c21.55,12.93,21.51,34.3,21.51,34.3h0c0,.43,0,.78,0,1.16a19.84,19.84,0,0,1-.62,4.88H16.5a19.37,19.37,0,0,1-.62-4.88" fill="#f1f1f2"/><path d="M46.3,158c-14.7,0-27-8.29-29.8-19.31H76.11C73.27,149.66,61,158,46.3,158" fill="#b3dcf4"/><rect x="42.25" y="89.71" width="7.76" height="53.46" fill="#bbbdbf"/><path d="M33.82,169.54l12.57,0,12.53,0-2.71,8.58s.1,1.08-3.38,1.08h-13c-3.47,0-3.36-1.08-3.36-1.08Z" fill="#6d6e70"/><rect x="30.18" y="178.09" width="32.34" height="7.33" fill="#929497"/><path d="M3.88,109.32H7.33v-7.93a4.88,4.88,0,0,1,1.3-3.64,5.77,5.77,0,0,1,3.67-1.39h0l7.31-.11,0-3.45-7.25.11a9.33,9.33,0,0,0-6.13,2.37,8.21,8.21,0,0,0-2.34,6.11Z" fill="#bbbdbf"/><rect x="18.54" y="92.29" width="18.75" height="4.74" fill="#6d6e70"/><rect x="21.77" y="89.92" width="3.23" height="9.49" rx="1.58" ry="1.58" fill="#bbbdbf"/><path d="M5.6,108.65a5.61,5.61,0,0,1,5.61,5.6v67.5H64.89v3.67H0V114.25a5.6,5.6,0,0,1,5.6-5.6" fill="#6d6e70"/><path d="M73,67.29H70.31s0,.07,0,.13c0,1.61-1.73,2.88-3.88,2.88H25.05c-2.14,0-3.88-1.27-3.88-2.88a1.09,1.09,0,0,1,0-.13H18.86L17.22,47.67H74.6Z" fill="#89601b"/><polygon points="45.83 1.45 78.42 1.37 74.6 47.67 17.22 47.67 13.33 1.36 45.83 1.45" fill="#f1f1f2"/><path d="M53,147a3,3,0,1,1,3,3,3,3,0,0,1-3-3" fill="#e3f1fb"/><path d="M41.32,152.22a2.89,2.89,0,1,1,2.89,2.89,2.89,2.89,0,0,1-2.89-2.89" fill="#e3f1fb"/><path d="M30.39,147.05a3,3,0,1,1,3,3,3,3,0,0,1-3-3" fill="#e3f1fb"/><path d="M39.31,145.65a.79.79,0,1,1,.79.78.79.79,0,0,1-.79-.78" fill="#e3f1fb"/><path d="M46.25,147a1.28,1.28,0,0,1,2.56,0,1.28,1.28,0,0,1-2.56,0" fill="#e3f1fb"/><path d="M49.5,153.41a1.81,1.81,0,1,1,1.81,1.8,1.81,1.81,0,0,1-1.81-1.8" fill="#e3f1fb"/><path d="M61.33,143.17a1.73,1.73,0,1,1,1.72,1.72,1.72,1.72,0,0,1-1.72-1.72" fill="#e3f1fb"/><path d="M53.11,136.74a2.26,2.26,0,0,1,2.4,2h-4.8a2.26,2.26,0,0,1,2.4-2" fill="#e3f1fb"/><path d="M65.89,137.53a1.47,1.47,0,0,1,1.6,1.22H64.3a1.46,1.46,0,0,1,1.59-1.22" fill="#e3f1fb"/><path d="M37.37,136.23a2.83,2.83,0,0,1,2.91,2.52H34.45a2.84,2.84,0,0,1,2.92-2.52" fill="#e3f1fb"/><path d="M27.09,137.53a1.46,1.46,0,0,1,1.59,1.22H25.5a1.46,1.46,0,0,1,1.59-1.22" fill="#e3f1fb"/><path d="M50.67,139.13c0-.15,0-.38,0-.38h4.8s0,.23,0,.38a2.34,2.34,0,0,1-1.86,2.31H52.53a2.34,2.34,0,0,1-1.86-2.31" fill="#e3f1fb"/><path d="M65.89,140.72a1.6,1.6,0,0,1-1.65-1.59c0-.15,0-.38.06-.38h3.19s.05.23.05.38a1.6,1.6,0,0,1-1.65,1.59" fill="#e3f1fb"/><path d="M34.45,138.75h5.83a1.4,1.4,0,0,1,0,.38,2.88,2.88,0,0,1-1.2,2.34,3,3,0,0,1-3.49,0,2.85,2.85,0,0,1-1.2-2.32,1.4,1.4,0,0,1,0-.38" fill="#e3f1fb"/><path d="M27.09,140.72a1.6,1.6,0,0,1-1.65-1.59c0-.15,0-.38.06-.38h3.18s.06.23.06.38a1.6,1.6,0,0,1-1.65,1.59" fill="#e3f1fb"/><rect x="13.41" width="65.11" height="7.18" fill="#6d6e70"/><g opacity="0.5"><g clip-path="url(#clip-path)"><path d="M46.3,158c-14.7,0-27-8.29-29.8-19.31H76.11C73.27,149.66,61,158,46.3,158" fill="#b3dcf4"/></g></g></g></g></svg>